<svg width="28" height="28" viewBox="0 0 28 28" fill="none" xmlns="http://www.w3.org/2000/svg">
<g clip-path="url(#clip0_206_799)">
<path d="M22.9616 8.4236C22.8317 8.38995 22.6909 8.38995 22.5547 8.38995C17.8415 8.38839 13.1275 8.38839 8.41431 8.38839H8.12555C8.10364 8.30544 8.08642 8.24362 8.07077 8.18023C7.86888 7.33979 7.67012 6.49857 7.46587 5.65891C7.35319 5.19643 7.10591 5.00236 6.63561 5.00158C5.86716 5.00001 5.09871 5.00001 4.33104 5.00236C4.23479 5.00236 4.13385 5.00784 4.04229 5.03288C3.68702 5.1307 3.46087 5.47736 3.50547 5.83733C3.55008 6.19729 3.849 6.48213 4.21992 6.48996C4.75361 6.50091 5.2873 6.49387 5.82177 6.49465C6.12852 6.49465 6.12696 6.49465 6.1966 6.78576C6.96897 10.0215 7.74133 13.2573 8.51525 16.4931C8.65376 17.0729 8.87209 17.2396 9.47542 17.2396C13.2386 17.2396 17.001 17.2396 20.7643 17.2396C21.3488 17.2396 21.5671 17.0643 21.7072 16.4962C22.0648 15.0454 22.4256 13.5946 22.784 12.1438C23.0164 11.2039 23.2519 10.2649 23.4765 9.32351C23.5751 8.91112 23.3497 8.52455 22.9608 8.42438L22.9616 8.4236ZM21.4341 11.3636C21.0851 12.7706 20.7337 14.176 20.391 15.5838C20.3597 15.7106 20.3112 15.7481 20.1844 15.7481C16.7984 15.745 13.4123 15.7458 10.0263 15.745C9.98172 15.745 9.93633 15.7395 9.87764 15.7364C9.4136 13.7957 8.95034 11.8566 8.48317 9.90102H21.7956C21.6743 10.394 21.5554 10.8784 21.4349 11.3628L21.4341 11.3636Z" fill="#4C4E57"/>
<path d="M10.3025 18.318C8.92448 18.3055 7.7992 19.4159 7.79372 20.7939C7.78824 22.1751 8.89553 23.291 10.2767 23.2965C11.6555 23.3012 12.7738 22.19 12.7785 20.8103C12.7832 19.4433 11.6774 18.3305 10.3025 18.318ZM10.2884 21.8026C9.74771 21.8049 9.29071 21.3519 9.28836 20.8103C9.28523 20.2696 9.7391 19.8142 10.2814 19.8126C10.8276 19.811 11.2768 20.2571 11.2776 20.8033C11.2783 21.3495 10.8331 21.8003 10.2884 21.8026Z" fill="#4C4E57"/>
<path d="M19.3464 18.3174C17.9675 18.3119 16.8493 19.4255 16.8485 20.8051C16.8485 22.1855 17.9628 23.2982 19.3424 23.2959C20.7236 23.2935 21.8333 22.1792 21.8301 20.7988C21.827 19.4278 20.7213 18.3229 19.3464 18.3174ZM19.3385 21.8028C18.7955 21.802 18.3463 21.3497 18.3463 20.8059C18.3463 20.2604 18.7962 19.812 19.3417 19.8128C19.884 19.8128 20.3386 20.2683 20.337 20.8082C20.3355 21.3489 19.8785 21.8036 19.3385 21.8028Z" fill="#4C4E57"/>
</g>
<defs>
<clipPath id="clip0_206_799">
<rect width="20" height="18.2964" fill="white" transform="translate(3.5 5)"/>
</clipPath>
</defs>
</svg>
