<svg width="28" height="28" viewBox="0 0 28 28" fill="none" xmlns="http://www.w3.org/2000/svg">
<g clip-path="url(#clip0_206_888)">
<path d="M21.577 10.492C19.1399 8.73169 16.7055 6.96784 14.2698 5.20539C13.8898 4.93053 13.6158 4.93123 13.2366 5.20539C10.8197 6.95455 8.40621 8.70791 5.98299 10.4487C5.31445 10.9285 4.99586 11.5572 5.00004 12.3769C5.00631 13.5197 5.00492 14.6632 5.00353 15.8067C5.00353 16.1878 5.00283 16.569 5.00283 16.9502C5.00283 18.5091 5.00283 20.0687 5.00283 21.6276C5.00283 22.2053 5.29562 22.4998 5.86866 22.4998C7.6554 22.4998 9.44214 22.4998 11.2289 22.4998C11.8075 22.4998 12.0982 22.2109 12.0982 21.6346C12.0982 20.4946 12.0912 19.3539 12.101 18.2139C12.11 17.1236 13.1111 16.3809 14.1526 16.6788C14.8379 16.8746 15.2903 17.4915 15.2931 18.2531C15.298 19.3994 15.2931 20.545 15.2952 21.6913C15.2952 22.1893 15.5999 22.4984 16.0969 22.4984C17.9478 22.5005 19.798 22.5005 21.6489 22.4984C22.1654 22.4984 22.5 22.1592 22.5 21.6465C22.5 18.5343 22.5 15.4213 22.5 12.309C22.5 11.546 22.1982 10.9403 21.577 10.4913V10.492ZM21.0096 20.8059V21.0276H16.778C16.778 20.9618 16.778 20.8933 16.778 20.8254C16.7752 19.889 16.8024 18.9511 16.762 18.016C16.6923 16.3886 15.2611 15.1017 13.6389 15.1625C11.9776 15.2255 10.7046 16.5494 10.69 18.2391C10.6823 19.0882 10.6886 19.9379 10.6886 20.787C10.6886 20.8555 10.6886 20.9241 10.6886 20.9982H6.45634V20.7891C6.45634 17.9622 6.45843 15.1346 6.45286 12.3076C6.45286 12.0097 6.5637 11.802 6.80072 11.632C9.07127 9.99828 11.3397 8.36102 13.6061 6.72166C13.7037 6.65102 13.7636 6.64962 13.8612 6.72166C16.122 8.36941 18.3842 10.0144 20.6499 11.6551C20.9022 11.8384 21.0152 12.058 21.0145 12.3762C21.0068 15.1856 21.0096 17.9957 21.0096 20.8059Z" fill="#9A9A9A"/>
</g>
<defs>
<clipPath id="clip0_206_888">
<rect width="17.5" height="17.5" fill="white" transform="translate(5 5)"/>
</clipPath>
</defs>
</svg>
